# xmcd CD database file
#
# Track frame offsets:
#	150
#	13480
#	28780
#	39610
#	55503
#	68607
#	83728
#	97516
#	112273
#	126463
#	138038
#	152444
#	166674
#	183028
#	198269
#	210350
#	217896
#	227972
#	237194
#	243965
#
# Disc length: 3409 seconds
#
# Revision: 0
# Processed by: cddbd v1.5.1PL0 Copyright (c) Steve Scherf et al.
# Submitted via: CDex 1.51
#
DISCID=f90d4f14
DTITLE=Frank Sinatra - Born In The U.S.A. - CD 1
DYEAR=2001
DGENRE=Jazz
TTITLE0=All Or Nothing
TTITLE1=From The Bottom Of My Heart
TTITLE2=Ciribiribin
TTITLE3=Shake Down The Stars
TTITLE4=The Fable Of The Rose
TTITLE5=East Of The Sun (And West Of The Moon)
TTITLE6=Our Love Affair
TTITLE7=O! Look At Me Now
TTITLE8=April Played The Fiddle
TTITLE9=Blue Skies
TTITLE10=Stardust
TTITLE11=I'll Never Smile Again
TTITLE12=The One I Love Belongs To Somebody
TTITLE13=Polka Dots And Moonbeams
TTITLE14=The Way You Look Tonight
TTITLE15=I'll Be Around
TTITLE16=She's Funny That Way
TTITLE17=Come Out, Come Out, Wherever You Are
TTITLE18=Put Your Dreams Away
TTITLE19=They Say It's Wonderful
EXTD=YEAR: 2001
EXTT0=
EXTT1=
EXTT2=
EXTT3=
EXTT4=
EXTT5=
EXTT6=
EXTT7=
EXTT8=
EXTT9=
EXTT10=
EXTT11=
EXTT12=
EXTT13=
EXTT14=
EXTT15=
EXTT16=
EXTT17=
EXTT18=
EXTT19=
PLAYORDER=
